<?xml version="1.0" encoding="utf-8" standalone="no"?>
<!DOCTYPE svg PUBLIC "-//W3C//DTD SVG 1.1//EN"
  "http://www.w3.org/Graphics/SVG/1.1/DTD/svg11.dtd">
<svg xmlns:xlink="http://www.w3.org/1999/xlink" width="720pt" height="720pt" viewBox="0 0 720 720" xmlns="http://www.w3.org/2000/svg" version="1.1">
 <metadata>
  <rdf:RDF xmlns:dc="http://purl.org/dc/elements/1.1/" xmlns:cc="http://creativecommons.org/ns#" xmlns:rdf="http://www.w3.org/1999/02/22-rdf-syntax-ns#">
   <cc:Work>
    <dc:type rdf:resource="http://purl.org/dc/dcmitype/StillImage"/>
    <dc:date>2025-01-27T18:56:51.641434</dc:date>
    <dc:format>image/svg+xml</dc:format>
    <dc:creator>
     <cc:Agent>
      <dc:title>Matplotlib v3.5.1, https://matplotlib.org/</dc:title>
     </cc:Agent>
    </dc:creator>
   </cc:Work>
  </rdf:RDF>
 </metadata>
 <defs>
  <style type="text/css">*{stroke-linejoin: round; stroke-linecap: butt}</style>
 </defs>
 <g id="figure_1">
  <g id="patch_1">
   <path d="M 0 720 
L 720 720 
L 720 0 
L 0 0 
L 0 720 
z
" style="fill: none"/>
  </g>
  <g id="axes_1">
   <g id="patch_2">
    <path d="M 90 630 
L 648 630 
L 648 86.4 
L 90 86.4 
z
" style="fill: #ffffff"/>
   </g>
   <g id="matplotlib.axis_1">
    <g id="xtick_1">
     <g id="line2d_1">
      <path d="M 147.860672 630 
L 147.860672 86.4 
" clip-path="url(#p482faedb5c)" style="fill: none; stroke: #b0b0b0; stroke-width: 0.8; stroke-linecap: square"/>
     </g>
     <g id="line2d_2">
      <defs>
       <path id="m8300a334c4" d="M 0 0 
L 0 3.5 
" style="stroke: #000000; stroke-width: 0.8"/>
      </defs>
      <g>
       <use xlink:href="#m8300a334c4" x="147.860672" y="630" style="stroke: #000000; stroke-width: 0.8"/>
      </g>
     </g>
     <g id="text_1">
      <!-- $\mathdefault{10^{-2}}$ -->
      <g transform="translate(136.110672 644.598438)scale(0.1 -0.1)">
       <defs>
        <path id="DejaVuSans-31" d="M 794 531 
L 1825 531 
L 1825 4091 
L 703 3866 
L 703 4441 
L 1819 4666 
L 2450 4666 
L 2450 531 
L 3481 531 
L 3481 0 
L 794 0 
L 794 531 
z
" transform="scale(0.015625)"/>
        <path id="DejaVuSans-30" d="M 2034 4250 
Q 1547 4250 1301 3770 
Q 1056 3291 1056 2328 
Q 1056 1369 1301 889 
Q 1547 409 2034 409 
Q 2525 409 2770 889 
Q 3016 1369 3016 2328 
Q 3016 3291 2770 3770 
Q 2525 4250 2034 4250 
z
M 2034 4750 
Q 2819 4750 3233 4129 
Q 3647 3509 3647 2328 
Q 3647 1150 3233 529 
Q 2819 -91 2034 -91 
Q 1250 -91 836 529 
Q 422 1150 422 2328 
Q 422 3509 836 4129 
Q 1250 4750 2034 4750 
z
" transform="scale(0.015625)"/>
        <path id="DejaVuSans-2212" d="M 678 2272 
L 4684 2272 
L 4684 1741 
L 678 1741 
L 678 2272 
z
" transform="scale(0.015625)"/>
        <path id="DejaVuSans-32" d="M 1228 531 
L 3431 531 
L 3431 0 
L 469 0 
L 469 531 
Q 828 903 1448 1529 
Q 2069 2156 2228 2338 
Q 2531 2678 2651 2914 
Q 2772 3150 2772 3378 
Q 2772 3750 2511 3984 
Q 2250 4219 1831 4219 
Q 1534 4219 1204 4116 
Q 875 4013 500 3803 
L 500 4441 
Q 881 4594 1212 4672 
Q 1544 4750 1819 4750 
Q 2544 4750 2975 4387 
Q 3406 4025 3406 3419 
Q 3406 3131 3298 2873 
Q 3191 2616 2906 2266 
Q 2828 2175 2409 1742 
Q 1991 1309 1228 531 
z
" transform="scale(0.015625)"/>
       </defs>
       <use xlink:href="#DejaVuSans-31" transform="translate(0 0.765625)"/>
       <use xlink:href="#DejaVuSans-30" transform="translate(63.623047 0.765625)"/>
       <use xlink:href="#DejaVuSans-2212" transform="translate(128.203125 39.046875)scale(0.7)"/>
       <use xlink:href="#DejaVuSans-32" transform="translate(186.855469 39.046875)scale(0.7)"/>
      </g>
     </g>
    </g>
    <g id="xtick_2">
     <g id="line2d_3">
      <path d="M 340.069664 630 
L 340.069664 86.4 
" clip-path="url(#p482faedb5c)" style="fill: none; stroke: #b0b0b0; stroke-width: 0.8; stroke-linecap: square"/>
     </g>
     <g id="line2d_4">
      <g>
       <use xlink:href="#m8300a334c4" x="340.069664" y="630" style="stroke: #000000; stroke-width: 0.8"/>
      </g>
     </g>
     <g id="text_2">
      <!-- $\mathdefault{10^{-1}}$ -->
      <g transform="translate(328.319664 644.598438)scale(0.1 -0.1)">
       <use xlink:href="#DejaVuSans-31" transform="translate(0 0.684375)"/>
       <use xlink:href="#DejaVuSans-30" transform="translate(63.623047 0.684375)"/>
       <use xlink:href="#DejaVuSans-2212" transform="translate(128.203125 38.965625)scale(0.7)"/>
       <use xlink:href="#DejaVuSans-31" transform="translate(186.855469 38.965625)scale(0.7)"/>
      </g>
     </g>
    </g>
    <g id="xtick_3">
     <g id="line2d_5">
      <path d="M 532.278656 630 
L 532.278656 86.4 
" clip-path="url(#p482faedb5c)" style="fill: none; stroke: #b0b0b0; stroke-width: 0.8; stroke-linecap: square"/>
     </g>
     <g id="line2d_6">
      <g>
       <use xlink:href="#m8300a334c4" x="532.278656" y="630" style="stroke: #000000; stroke-width: 0.8"/>
      </g>
     </g>
     <g id="text_3">
      <!-- $\mathdefault{10^{0}}$ -->
      <g transform="translate(523.478656 644.598438)scale(0.1 -0.1)">
       <use xlink:href="#DejaVuSans-31" transform="translate(0 0.765625)"/>
       <use xlink:href="#DejaVuSans-30" transform="translate(63.623047 0.765625)"/>
       <use xlink:href="#DejaVuSans-30" transform="translate(128.203125 39.046875)scale(0.7)"/>
      </g>
     </g>
    </g>
    <g id="xtick_4">
     <g id="line2d_7">
      <defs>
       <path id="m04dde29a4e" d="M 0 0 
L 0 2 
" style="stroke: #000000; stroke-width: 0.6"/>
      </defs>
      <g>
       <use xlink:href="#m04dde29a4e" x="90" y="630" style="stroke: #000000; stroke-width: 0.6"/>
      </g>
     </g>
    </g>
    <g id="xtick_5">
     <g id="line2d_8">
      <g>
       <use xlink:href="#m04dde29a4e" x="105.219347" y="630" style="stroke: #000000; stroke-width: 0.6"/>
      </g>
     </g>
    </g>
    <g id="xtick_6">
     <g id="line2d_9">
      <g>
       <use xlink:href="#m04dde29a4e" x="118.087122" y="630" style="stroke: #000000; stroke-width: 0.6"/>
      </g>
     </g>
    </g>
    <g id="xtick_7">
     <g id="line2d_10">
      <g>
       <use xlink:href="#m04dde29a4e" x="129.233696" y="630" style="stroke: #000000; stroke-width: 0.6"/>
      </g>
     </g>
    </g>
    <g id="xtick_8">
     <g id="line2d_11">
      <g>
       <use xlink:href="#m04dde29a4e" x="139.065671" y="630" style="stroke: #000000; stroke-width: 0.6"/>
      </g>
     </g>
    </g>
    <g id="xtick_9">
     <g id="line2d_12">
      <g>
       <use xlink:href="#m04dde29a4e" x="205.721344" y="630" style="stroke: #000000; stroke-width: 0.6"/>
      </g>
     </g>
    </g>
    <g id="xtick_10">
     <g id="line2d_13">
      <g>
       <use xlink:href="#m04dde29a4e" x="239.567667" y="630" style="stroke: #000000; stroke-width: 0.6"/>
      </g>
     </g>
    </g>
    <g id="xtick_11">
     <g id="line2d_14">
      <g>
       <use xlink:href="#m04dde29a4e" x="263.582016" y="630" style="stroke: #000000; stroke-width: 0.6"/>
      </g>
     </g>
    </g>
    <g id="xtick_12">
     <g id="line2d_15">
      <g>
       <use xlink:href="#m04dde29a4e" x="282.208992" y="630" style="stroke: #000000; stroke-width: 0.6"/>
      </g>
     </g>
    </g>
    <g id="xtick_13">
     <g id="line2d_16">
      <g>
       <use xlink:href="#m04dde29a4e" x="297.428339" y="630" style="stroke: #000000; stroke-width: 0.6"/>
      </g>
     </g>
    </g>
    <g id="xtick_14">
     <g id="line2d_17">
      <g>
       <use xlink:href="#m04dde29a4e" x="310.296114" y="630" style="stroke: #000000; stroke-width: 0.6"/>
      </g>
     </g>
    </g>
    <g id="xtick_15">
     <g id="line2d_18">
      <g>
       <use xlink:href="#m04dde29a4e" x="321.442688" y="630" style="stroke: #000000; stroke-width: 0.6"/>
      </g>
     </g>
    </g>
    <g id="xtick_16">
     <g id="line2d_19">
      <g>
       <use xlink:href="#m04dde29a4e" x="331.274663" y="630" style="stroke: #000000; stroke-width: 0.6"/>
      </g>
     </g>
    </g>
    <g id="xtick_17">
     <g id="line2d_20">
      <g>
       <use xlink:href="#m04dde29a4e" x="397.930336" y="630" style="stroke: #000000; stroke-width: 0.6"/>
      </g>
     </g>
    </g>
    <g id="xtick_18">
     <g id="line2d_21">
      <g>
       <use xlink:href="#m04dde29a4e" x="431.776659" y="630" style="stroke: #000000; stroke-width: 0.6"/>
      </g>
     </g>
    </g>
    <g id="xtick_19">
     <g id="line2d_22">
      <g>
       <use xlink:href="#m04dde29a4e" x="455.791008" y="630" style="stroke: #000000; stroke-width: 0.6"/>
      </g>
     </g>
    </g>
    <g id="xtick_20">
     <g id="line2d_23">
      <g>
       <use xlink:href="#m04dde29a4e" x="474.417984" y="630" style="stroke: #000000; stroke-width: 0.6"/>
      </g>
     </g>
    </g>
    <g id="xtick_21">
     <g id="line2d_24">
      <g>
       <use xlink:href="#m04dde29a4e" x="489.637331" y="630" style="stroke: #000000; stroke-width: 0.6"/>
      </g>
     </g>
    </g>
    <g id="xtick_22">
     <g id="line2d_25">
      <g>
       <use xlink:href="#m04dde29a4e" x="502.505106" y="630" style="stroke: #000000; stroke-width: 0.6"/>
      </g>
     </g>
    </g>
    <g id="xtick_23">
     <g id="line2d_26">
      <g>
       <use xlink:href="#m04dde29a4e" x="513.65168" y="630" style="stroke: #000000; stroke-width: 0.6"/>
      </g>
     </g>
    </g>
    <g id="xtick_24">
     <g id="line2d_27">
      <g>
       <use xlink:href="#m04dde29a4e" x="523.483655" y="630" style="stroke: #000000; stroke-width: 0.6"/>
      </g>
     </g>
    </g>
    <g id="xtick_25">
     <g id="line2d_28">
      <g>
       <use xlink:href="#m04dde29a4e" x="590.139328" y="630" style="stroke: #000000; stroke-width: 0.6"/>
      </g>
     </g>
    </g>
    <g id="xtick_26">
     <g id="line2d_29">
      <g>
       <use xlink:href="#m04dde29a4e" x="623.985651" y="630" style="stroke: #000000; stroke-width: 0.6"/>
      </g>
     </g>
    </g>
    <g id="xtick_27">
     <g id="line2d_30">
      <g>
       <use xlink:href="#m04dde29a4e" x="648" y="630" style="stroke: #000000; stroke-width: 0.6"/>
      </g>
     </g>
    </g>
    <g id="text_4">
     <!-- x:LoopResilience-Polyhedra-Delay2 -->
     <g transform="translate(105.8625 673.473438)scale(0.3 -0.3)">
      <defs>
       <path id="DejaVuSans-78" d="M 3513 3500 
L 2247 1797 
L 3578 0 
L 2900 0 
L 1881 1375 
L 863 0 
L 184 0 
L 1544 1831 
L 300 3500 
L 978 3500 
L 1906 2253 
L 2834 3500 
L 3513 3500 
z
" transform="scale(0.015625)"/>
       <path id="DejaVuSans-3a" d="M 750 794 
L 1409 794 
L 1409 0 
L 750 0 
L 750 794 
z
M 750 3309 
L 1409 3309 
L 1409 2516 
L 750 2516 
L 750 3309 
z
" transform="scale(0.015625)"/>
       <path id="DejaVuSans-4c" d="M 628 4666 
L 1259 4666 
L 1259 531 
L 3531 531 
L 3531 0 
L 628 0 
L 628 4666 
z
" transform="scale(0.015625)"/>
       <path id="DejaVuSans-6f" d="M 1959 3097 
Q 1497 3097 1228 2736 
Q 959 2375 959 1747 
Q 959 1119 1226 758 
Q 1494 397 1959 397 
Q 2419 397 2687 759 
Q 2956 1122 2956 1747 
Q 2956 2369 2687 2733 
Q 2419 3097 1959 3097 
z
M 1959 3584 
Q 2709 3584 3137 3096 
Q 3566 2609 3566 1747 
Q 3566 888 3137 398 
Q 2709 -91 1959 -91 
Q 1206 -91 779 398 
Q 353 888 353 1747 
Q 353 2609 779 3096 
Q 1206 3584 1959 3584 
z
" transform="scale(0.015625)"/>
       <path id="DejaVuSans-70" d="M 1159 525 
L 1159 -1331 
L 581 -1331 
L 581 3500 
L 1159 3500 
L 1159 2969 
Q 1341 3281 1617 3432 
Q 1894 3584 2278 3584 
Q 2916 3584 3314 3078 
Q 3713 2572 3713 1747 
Q 3713 922 3314 415 
Q 2916 -91 2278 -91 
Q 1894 -91 1617 61 
Q 1341 213 1159 525 
z
M 3116 1747 
Q 3116 2381 2855 2742 
Q 2594 3103 2138 3103 
Q 1681 3103 1420 2742 
Q 1159 2381 1159 1747 
Q 1159 1113 1420 752 
Q 1681 391 2138 391 
Q 2594 391 2855 752 
Q 3116 1113 3116 1747 
z
" transform="scale(0.015625)"/>
       <path id="DejaVuSans-52" d="M 2841 2188 
Q 3044 2119 3236 1894 
Q 3428 1669 3622 1275 
L 4263 0 
L 3584 0 
L 2988 1197 
Q 2756 1666 2539 1819 
Q 2322 1972 1947 1972 
L 1259 1972 
L 1259 0 
L 628 0 
L 628 4666 
L 2053 4666 
Q 2853 4666 3247 4331 
Q 3641 3997 3641 3322 
Q 3641 2881 3436 2590 
Q 3231 2300 2841 2188 
z
M 1259 4147 
L 1259 2491 
L 2053 2491 
Q 2509 2491 2742 2702 
Q 2975 2913 2975 3322 
Q 2975 3731 2742 3939 
Q 2509 4147 2053 4147 
L 1259 4147 
z
" transform="scale(0.015625)"/>
       <path id="DejaVuSans-65" d="M 3597 1894 
L 3597 1613 
L 953 1613 
Q 991 1019 1311 708 
Q 1631 397 2203 397 
Q 2534 397 2845 478 
Q 3156 559 3463 722 
L 3463 178 
Q 3153 47 2828 -22 
Q 2503 -91 2169 -91 
Q 1331 -91 842 396 
Q 353 884 353 1716 
Q 353 2575 817 3079 
Q 1281 3584 2069 3584 
Q 2775 3584 3186 3129 
Q 3597 2675 3597 1894 
z
M 3022 2063 
Q 3016 2534 2758 2815 
Q 2500 3097 2075 3097 
Q 1594 3097 1305 2825 
Q 1016 2553 972 2059 
L 3022 2063 
z
" transform="scale(0.015625)"/>
       <path id="DejaVuSans-73" d="M 2834 3397 
L 2834 2853 
Q 2591 2978 2328 3040 
Q 2066 3103 1784 3103 
Q 1356 3103 1142 2972 
Q 928 2841 928 2578 
Q 928 2378 1081 2264 
Q 1234 2150 1697 2047 
L 1894 2003 
Q 2506 1872 2764 1633 
Q 3022 1394 3022 966 
Q 3022 478 2636 193 
Q 2250 -91 1575 -91 
Q 1294 -91 989 -36 
Q 684 19 347 128 
L 347 722 
Q 666 556 975 473 
Q 1284 391 1588 391 
Q 1994 391 2212 530 
Q 2431 669 2431 922 
Q 2431 1156 2273 1281 
Q 2116 1406 1581 1522 
L 1381 1569 
Q 847 1681 609 1914 
Q 372 2147 372 2553 
Q 372 3047 722 3315 
Q 1072 3584 1716 3584 
Q 2034 3584 2315 3537 
Q 2597 3491 2834 3397 
z
" transform="scale(0.015625)"/>
       <path id="DejaVuSans-69" d="M 603 3500 
L 1178 3500 
L 1178 0 
L 603 0 
L 603 3500 
z
M 603 4863 
L 1178 4863 
L 1178 4134 
L 603 4134 
L 603 4863 
z
" transform="scale(0.015625)"/>
       <path id="DejaVuSans-6c" d="M 603 4863 
L 1178 4863 
L 1178 0 
L 603 0 
L 603 4863 
z
" transform="scale(0.015625)"/>
       <path id="DejaVuSans-6e" d="M 3513 2113 
L 3513 0 
L 2938 0 
L 2938 2094 
Q 2938 2591 2744 2837 
Q 2550 3084 2163 3084 
Q 1697 3084 1428 2787 
Q 1159 2491 1159 1978 
L 1159 0 
L 581 0 
L 581 3500 
L 1159 3500 
L 1159 2956 
Q 1366 3272 1645 3428 
Q 1925 3584 2291 3584 
Q 2894 3584 3203 3211 
Q 3513 2838 3513 2113 
z
" transform="scale(0.015625)"/>
       <path id="DejaVuSans-63" d="M 3122 3366 
L 3122 2828 
Q 2878 2963 2633 3030 
Q 2388 3097 2138 3097 
Q 1578 3097 1268 2742 
Q 959 2388 959 1747 
Q 959 1106 1268 751 
Q 1578 397 2138 397 
Q 2388 397 2633 464 
Q 2878 531 3122 666 
L 3122 134 
Q 2881 22 2623 -34 
Q 2366 -91 2075 -91 
Q 1284 -91 818 406 
Q 353 903 353 1747 
Q 353 2603 823 3093 
Q 1294 3584 2113 3584 
Q 2378 3584 2631 3529 
Q 2884 3475 3122 3366 
z
" transform="scale(0.015625)"/>
       <path id="DejaVuSans-2d" d="M 313 2009 
L 1997 2009 
L 1997 1497 
L 313 1497 
L 313 2009 
z
" transform="scale(0.015625)"/>
       <path id="DejaVuSans-50" d="M 1259 4147 
L 1259 2394 
L 2053 2394 
Q 2494 2394 2734 2622 
Q 2975 2850 2975 3272 
Q 2975 3691 2734 3919 
Q 2494 4147 2053 4147 
L 1259 4147 
z
M 628 4666 
L 2053 4666 
Q 2838 4666 3239 4311 
Q 3641 3956 3641 3272 
Q 3641 2581 3239 2228 
Q 2838 1875 2053 1875 
L 1259 1875 
L 1259 0 
L 628 0 
L 628 4666 
z
" transform="scale(0.015625)"/>
       <path id="DejaVuSans-79" d="M 2059 -325 
Q 1816 -950 1584 -1140 
Q 1353 -1331 966 -1331 
L 506 -1331 
L 506 -850 
L 844 -850 
Q 1081 -850 1212 -737 
Q 1344 -625 1503 -206 
L 1606 56 
L 191 3500 
L 800 3500 
L 1894 763 
L 2988 3500 
L 3597 3500 
L 2059 -325 
z
" transform="scale(0.015625)"/>
       <path id="DejaVuSans-68" d="M 3513 2113 
L 3513 0 
L 2938 0 
L 2938 2094 
Q 2938 2591 2744 2837 
Q 2550 3084 2163 3084 
Q 1697 3084 1428 2787 
Q 1159 2491 1159 1978 
L 1159 0 
L 581 0 
L 581 4863 
L 1159 4863 
L 1159 2956 
Q 1366 3272 1645 3428 
Q 1925 3584 2291 3584 
Q 2894 3584 3203 3211 
Q 3513 2838 3513 2113 
z
" transform="scale(0.015625)"/>
       <path id="DejaVuSans-64" d="M 2906 2969 
L 2906 4863 
L 3481 4863 
L 3481 0 
L 2906 0 
L 2906 525 
Q 2725 213 2448 61 
Q 2172 -91 1784 -91 
Q 1150 -91 751 415 
Q 353 922 353 1747 
Q 353 2572 751 3078 
Q 1150 3584 1784 3584 
Q 2172 3584 2448 3432 
Q 2725 3281 2906 2969 
z
M 947 1747 
Q 947 1113 1208 752 
Q 1469 391 1925 391 
Q 2381 391 2643 752 
Q 2906 1113 2906 1747 
Q 2906 2381 2643 2742 
Q 2381 3103 1925 3103 
Q 1469 3103 1208 2742 
Q 947 2381 947 1747 
z
" transform="scale(0.015625)"/>
       <path id="DejaVuSans-72" d="M 2631 2963 
Q 2534 3019 2420 3045 
Q 2306 3072 2169 3072 
Q 1681 3072 1420 2755 
Q 1159 2438 1159 1844 
L 1159 0 
L 581 0 
L 581 3500 
L 1159 3500 
L 1159 2956 
Q 1341 3275 1631 3429 
Q 1922 3584 2338 3584 
Q 2397 3584 2469 3576 
Q 2541 3569 2628 3553 
L 2631 2963 
z
" transform="scale(0.015625)"/>
       <path id="DejaVuSans-61" d="M 2194 1759 
Q 1497 1759 1228 1600 
Q 959 1441 959 1056 
Q 959 750 1161 570 
Q 1363 391 1709 391 
Q 2188 391 2477 730 
Q 2766 1069 2766 1631 
L 2766 1759 
L 2194 1759 
z
M 3341 1997 
L 3341 0 
L 2766 0 
L 2766 531 
Q 2569 213 2275 61 
Q 1981 -91 1556 -91 
Q 1019 -91 701 211 
Q 384 513 384 1019 
Q 384 1609 779 1909 
Q 1175 2209 1959 2209 
L 2766 2209 
L 2766 2266 
Q 2766 2663 2505 2880 
Q 2244 3097 1772 3097 
Q 1472 3097 1187 3025 
Q 903 2953 641 2809 
L 641 3341 
Q 956 3463 1253 3523 
Q 1550 3584 1831 3584 
Q 2591 3584 2966 3190 
Q 3341 2797 3341 1997 
z
" transform="scale(0.015625)"/>
       <path id="DejaVuSans-44" d="M 1259 4147 
L 1259 519 
L 2022 519 
Q 2988 519 3436 956 
Q 3884 1394 3884 2338 
Q 3884 3275 3436 3711 
Q 2988 4147 2022 4147 
L 1259 4147 
z
M 628 4666 
L 1925 4666 
Q 3281 4666 3915 4102 
Q 4550 3538 4550 2338 
Q 4550 1131 3912 565 
Q 3275 0 1925 0 
L 628 0 
L 628 4666 
z
" transform="scale(0.015625)"/>
      </defs>
      <use xlink:href="#DejaVuSans-78"/>
      <use xlink:href="#DejaVuSans-3a" x="59.179688"/>
      <use xlink:href="#DejaVuSans-4c" x="92.871094"/>
      <use xlink:href="#DejaVuSans-6f" x="146.833984"/>
      <use xlink:href="#DejaVuSans-6f" x="208.015625"/>
      <use xlink:href="#DejaVuSans-70" x="269.197266"/>
      <use xlink:href="#DejaVuSans-52" x="332.673828"/>
      <use xlink:href="#DejaVuSans-65" x="397.65625"/>
      <use xlink:href="#DejaVuSans-73" x="459.179688"/>
      <use xlink:href="#DejaVuSans-69" x="511.279297"/>
      <use xlink:href="#DejaVuSans-6c" x="539.0625"/>
      <use xlink:href="#DejaVuSans-69" x="566.845703"/>
      <use xlink:href="#DejaVuSans-65" x="594.628906"/>
      <use xlink:href="#DejaVuSans-6e" x="656.152344"/>
      <use xlink:href="#DejaVuSans-63" x="719.53125"/>
      <use xlink:href="#DejaVuSans-65" x="774.511719"/>
      <use xlink:href="#DejaVuSans-2d" x="836.035156"/>
      <use xlink:href="#DejaVuSans-50" x="872.119141"/>
      <use xlink:href="#DejaVuSans-6f" x="928.796875"/>
      <use xlink:href="#DejaVuSans-6c" x="989.978516"/>
      <use xlink:href="#DejaVuSans-79" x="1017.761719"/>
      <use xlink:href="#DejaVuSans-68" x="1076.941406"/>
      <use xlink:href="#DejaVuSans-65" x="1140.320312"/>
      <use xlink:href="#DejaVuSans-64" x="1201.84375"/>
      <use xlink:href="#DejaVuSans-72" x="1265.320312"/>
      <use xlink:href="#DejaVuSans-61" x="1306.433594"/>
      <use xlink:href="#DejaVuSans-2d" x="1367.712891"/>
      <use xlink:href="#DejaVuSans-44" x="1403.796875"/>
      <use xlink:href="#DejaVuSans-65" x="1480.798828"/>
      <use xlink:href="#DejaVuSans-6c" x="1542.322266"/>
      <use xlink:href="#DejaVuSans-61" x="1570.105469"/>
      <use xlink:href="#DejaVuSans-79" x="1631.384766"/>
      <use xlink:href="#DejaVuSans-32" x="1690.564453"/>
     </g>
    </g>
   </g>
   <g id="matplotlib.axis_2">
    <g id="ytick_1">
     <g id="line2d_31">
      <path d="M 90 573.632507 
L 648 573.632507 
" clip-path="url(#p482faedb5c)" style="fill: none; stroke: #b0b0b0; stroke-width: 0.8; stroke-linecap: square"/>
     </g>
     <g id="line2d_32">
      <defs>
       <path id="mc5a49b0996" d="M 0 0 
L -3.5 0 
" style="stroke: #000000; stroke-width: 0.8"/>
      </defs>
      <g>
       <use xlink:href="#mc5a49b0996" x="90" y="573.632507" style="stroke: #000000; stroke-width: 0.8"/>
      </g>
     </g>
     <g id="text_5">
      <!-- $\mathdefault{10^{-2}}$ -->
      <g transform="translate(59.5 577.431725)scale(0.1 -0.1)">
       <use xlink:href="#DejaVuSans-31" transform="translate(0 0.765625)"/>
       <use xlink:href="#DejaVuSans-30" transform="translate(63.623047 0.765625)"/>
       <use xlink:href="#DejaVuSans-2212" transform="translate(128.203125 39.046875)scale(0.7)"/>
       <use xlink:href="#DejaVuSans-32" transform="translate(186.855469 39.046875)scale(0.7)"/>
      </g>
     </g>
    </g>
    <g id="ytick_2">
     <g id="line2d_33">
      <path d="M 90 386.383747 
L 648 386.383747 
" clip-path="url(#p482faedb5c)" style="fill: none; stroke: #b0b0b0; stroke-width: 0.8; stroke-linecap: square"/>
     </g>
     <g id="line2d_34">
      <g>
       <use xlink:href="#mc5a49b0996" x="90" y="386.383747" style="stroke: #000000; stroke-width: 0.8"/>
      </g>
     </g>
     <g id="text_6">
      <!-- $\mathdefault{10^{-1}}$ -->
      <g transform="translate(59.5 390.182965)scale(0.1 -0.1)">
       <use xlink:href="#DejaVuSans-31" transform="translate(0 0.684375)"/>
       <use xlink:href="#DejaVuSans-30" transform="translate(63.623047 0.684375)"/>
       <use xlink:href="#DejaVuSans-2212" transform="translate(128.203125 38.965625)scale(0.7)"/>
       <use xlink:href="#DejaVuSans-31" transform="translate(186.855469 38.965625)scale(0.7)"/>
      </g>
     </g>
    </g>
    <g id="ytick_3">
     <g id="line2d_35">
      <path d="M 90 199.134987 
L 648 199.134987 
" clip-path="url(#p482faedb5c)" style="fill: none; stroke: #b0b0b0; stroke-width: 0.8; stroke-linecap: square"/>
     </g>
     <g id="line2d_36">
      <g>
       <use xlink:href="#mc5a49b0996" x="90" y="199.134987" style="stroke: #000000; stroke-width: 0.8"/>
      </g>
     </g>
     <g id="text_7">
      <!-- $\mathdefault{10^{0}}$ -->
      <g transform="translate(65.4 202.934206)scale(0.1 -0.1)">
       <use xlink:href="#DejaVuSans-31" transform="translate(0 0.765625)"/>
       <use xlink:href="#DejaVuSans-30" transform="translate(63.623047 0.765625)"/>
       <use xlink:href="#DejaVuSans-30" transform="translate(128.203125 39.046875)scale(0.7)"/>
      </g>
     </g>
    </g>
    <g id="ytick_4">
     <g id="line2d_37">
      <defs>
       <path id="mc5fab2108d" d="M 0 0 
L -2 0 
" style="stroke: #000000; stroke-width: 0.6"/>
      </defs>
      <g>
       <use xlink:href="#mc5fab2108d" x="90" y="630" style="stroke: #000000; stroke-width: 0.6"/>
      </g>
     </g>
    </g>
    <g id="ytick_5">
     <g id="line2d_38">
      <g>
       <use xlink:href="#mc5fab2108d" x="90" y="615.17341" style="stroke: #000000; stroke-width: 0.6"/>
      </g>
     </g>
    </g>
    <g id="ytick_6">
     <g id="line2d_39">
      <g>
       <use xlink:href="#mc5fab2108d" x="90" y="602.637707" style="stroke: #000000; stroke-width: 0.6"/>
      </g>
     </g>
    </g>
    <g id="ytick_7">
     <g id="line2d_40">
      <g>
       <use xlink:href="#mc5fab2108d" x="90" y="591.778786" style="stroke: #000000; stroke-width: 0.6"/>
      </g>
     </g>
    </g>
    <g id="ytick_8">
     <g id="line2d_41">
      <g>
       <use xlink:href="#mc5fab2108d" x="90" y="582.20054" style="stroke: #000000; stroke-width: 0.6"/>
      </g>
     </g>
    </g>
    <g id="ytick_9">
     <g id="line2d_42">
      <g>
       <use xlink:href="#mc5fab2108d" x="90" y="517.265013" style="stroke: #000000; stroke-width: 0.6"/>
      </g>
     </g>
    </g>
    <g id="ytick_10">
     <g id="line2d_43">
      <g>
       <use xlink:href="#mc5fab2108d" x="90" y="484.292143" style="stroke: #000000; stroke-width: 0.6"/>
      </g>
     </g>
    </g>
    <g id="ytick_11">
     <g id="line2d_44">
      <g>
       <use xlink:href="#mc5fab2108d" x="90" y="460.89752" style="stroke: #000000; stroke-width: 0.6"/>
      </g>
     </g>
    </g>
    <g id="ytick_12">
     <g id="line2d_45">
      <g>
       <use xlink:href="#mc5fab2108d" x="90" y="442.75124" style="stroke: #000000; stroke-width: 0.6"/>
      </g>
     </g>
    </g>
    <g id="ytick_13">
     <g id="line2d_46">
      <g>
       <use xlink:href="#mc5fab2108d" x="90" y="427.92465" style="stroke: #000000; stroke-width: 0.6"/>
      </g>
     </g>
    </g>
    <g id="ytick_14">
     <g id="line2d_47">
      <g>
       <use xlink:href="#mc5fab2108d" x="90" y="415.388947" style="stroke: #000000; stroke-width: 0.6"/>
      </g>
     </g>
    </g>
    <g id="ytick_15">
     <g id="line2d_48">
      <g>
       <use xlink:href="#mc5fab2108d" x="90" y="404.530026" style="stroke: #000000; stroke-width: 0.6"/>
      </g>
     </g>
    </g>
    <g id="ytick_16">
     <g id="line2d_49">
      <g>
       <use xlink:href="#mc5fab2108d" x="90" y="394.95178" style="stroke: #000000; stroke-width: 0.6"/>
      </g>
     </g>
    </g>
    <g id="ytick_17">
     <g id="line2d_50">
      <g>
       <use xlink:href="#mc5fab2108d" x="90" y="330.016253" style="stroke: #000000; stroke-width: 0.6"/>
      </g>
     </g>
    </g>
    <g id="ytick_18">
     <g id="line2d_51">
      <g>
       <use xlink:href="#mc5fab2108d" x="90" y="297.043383" style="stroke: #000000; stroke-width: 0.6"/>
      </g>
     </g>
    </g>
    <g id="ytick_19">
     <g id="line2d_52">
      <g>
       <use xlink:href="#mc5fab2108d" x="90" y="273.64876" style="stroke: #000000; stroke-width: 0.6"/>
      </g>
     </g>
    </g>
    <g id="ytick_20">
     <g id="line2d_53">
      <g>
       <use xlink:href="#mc5fab2108d" x="90" y="255.50248" style="stroke: #000000; stroke-width: 0.6"/>
      </g>
     </g>
    </g>
    <g id="ytick_21">
     <g id="line2d_54">
      <g>
       <use xlink:href="#mc5fab2108d" x="90" y="240.67589" style="stroke: #000000; stroke-width: 0.6"/>
      </g>
     </g>
    </g>
    <g id="ytick_22">
     <g id="line2d_55">
      <g>
       <use xlink:href="#mc5fab2108d" x="90" y="228.140187" style="stroke: #000000; stroke-width: 0.6"/>
      </g>
     </g>
    </g>
    <g id="ytick_23">
     <g id="line2d_56">
      <g>
       <use xlink:href="#mc5fab2108d" x="90" y="217.281267" style="stroke: #000000; stroke-width: 0.6"/>
      </g>
     </g>
    </g>
    <g id="ytick_24">
     <g id="line2d_57">
      <g>
       <use xlink:href="#mc5fab2108d" x="90" y="207.70302" style="stroke: #000000; stroke-width: 0.6"/>
      </g>
     </g>
    </g>
    <g id="ytick_25">
     <g id="line2d_58">
      <g>
       <use xlink:href="#mc5fab2108d" x="90" y="142.767493" style="stroke: #000000; stroke-width: 0.6"/>
      </g>
     </g>
    </g>
    <g id="ytick_26">
     <g id="line2d_59">
      <g>
       <use xlink:href="#mc5fab2108d" x="90" y="109.794623" style="stroke: #000000; stroke-width: 0.6"/>
      </g>
     </g>
    </g>
    <g id="ytick_27">
     <g id="line2d_60">
      <g>
       <use xlink:href="#mc5fab2108d" x="90" y="86.4" style="stroke: #000000; stroke-width: 0.6"/>
      </g>
     </g>
    </g>
    <g id="text_8">
     <!-- y:LoopResilience-Boxes-Delay2 -->
     <g transform="translate(49.260937 589.81875)rotate(-90)scale(0.3 -0.3)">
      <defs>
       <path id="DejaVuSans-42" d="M 1259 2228 
L 1259 519 
L 2272 519 
Q 2781 519 3026 730 
Q 3272 941 3272 1375 
Q 3272 1813 3026 2020 
Q 2781 2228 2272 2228 
L 1259 2228 
z
M 1259 4147 
L 1259 2741 
L 2194 2741 
Q 2656 2741 2882 2914 
Q 3109 3088 3109 3444 
Q 3109 3797 2882 3972 
Q 2656 4147 2194 4147 
L 1259 4147 
z
M 628 4666 
L 2241 4666 
Q 2963 4666 3353 4366 
Q 3744 4066 3744 3513 
Q 3744 3084 3544 2831 
Q 3344 2578 2956 2516 
Q 3422 2416 3680 2098 
Q 3938 1781 3938 1306 
Q 3938 681 3513 340 
Q 3088 0 2303 0 
L 628 0 
L 628 4666 
z
" transform="scale(0.015625)"/>
      </defs>
      <use xlink:href="#DejaVuSans-79"/>
      <use xlink:href="#DejaVuSans-3a" x="51.929688"/>
      <use xlink:href="#DejaVuSans-4c" x="85.621094"/>
      <use xlink:href="#DejaVuSans-6f" x="139.583984"/>
      <use xlink:href="#DejaVuSans-6f" x="200.765625"/>
      <use xlink:href="#DejaVuSans-70" x="261.947266"/>
      <use xlink:href="#DejaVuSans-52" x="325.423828"/>
      <use xlink:href="#DejaVuSans-65" x="390.40625"/>
      <use xlink:href="#DejaVuSans-73" x="451.929688"/>
      <use xlink:href="#DejaVuSans-69" x="504.029297"/>
      <use xlink:href="#DejaVuSans-6c" x="531.8125"/>
      <use xlink:href="#DejaVuSans-69" x="559.595703"/>
      <use xlink:href="#DejaVuSans-65" x="587.378906"/>
      <use xlink:href="#DejaVuSans-6e" x="648.902344"/>
      <use xlink:href="#DejaVuSans-63" x="712.28125"/>
      <use xlink:href="#DejaVuSans-65" x="767.261719"/>
      <use xlink:href="#DejaVuSans-2d" x="828.785156"/>
      <use xlink:href="#DejaVuSans-42" x="861.244141"/>
      <use xlink:href="#DejaVuSans-6f" x="929.847656"/>
      <use xlink:href="#DejaVuSans-78" x="987.904297"/>
      <use xlink:href="#DejaVuSans-65" x="1043.958984"/>
      <use xlink:href="#DejaVuSans-73" x="1105.482422"/>
      <use xlink:href="#DejaVuSans-2d" x="1157.582031"/>
      <use xlink:href="#DejaVuSans-44" x="1193.666016"/>
      <use xlink:href="#DejaVuSans-65" x="1270.667969"/>
      <use xlink:href="#DejaVuSans-6c" x="1332.191406"/>
      <use xlink:href="#DejaVuSans-61" x="1359.974609"/>
      <use xlink:href="#DejaVuSans-79" x="1421.253906"/>
      <use xlink:href="#DejaVuSans-32" x="1480.433594"/>
     </g>
    </g>
   </g>
   <g id="line2d_61">
    <path d="M -1 718.651613 
L 283.047947 441.933936 
L 340.908619 385.566442 
L 374.754942 352.593572 
L 398.769291 329.198949 
L 417.396267 311.052669 
L 432.615614 296.226079 
L 445.483389 283.690376 
L 456.629963 272.831456 
L 466.461938 263.253209 
L 475.256939 254.685176 
L 483.212985 246.934447 
L 490.476286 239.858586 
L 497.157876 233.349424 
L 503.344061 227.322882 
L 509.103262 221.712306 
L 514.490635 216.463962 
L 519.551294 211.533901 
L 524.32261 206.885716 
L 528.835887 202.48891 
L 533.117611 198.317682 
L 537.190385 194.350012 
L 541.073657 190.566953 
L 544.784282 186.952087 
L 548.336958 183.491092 
L 551.744587 180.171403 
L 555.018548 176.981931 
L 558.168933 173.912846 
L 561.204733 170.955389 
L 564.133992 168.101724 
L 566.963934 165.344812 
L 569.701075 162.678308 
L 572.351307 160.096469 
L 574.91998 157.594084 
L 577.411966 155.166408 
L 579.831709 152.809109 
L 582.183282 150.518222 
L 584.470419 148.290108 
L 586.696559 146.121416 
L 588.864871 144.009061 
L 590.978283 141.950189 
L 593.039506 139.942158 
L 595.051057 137.982519 
L 597.015272 136.068993 
L 598.934329 134.19946 
L 600.810258 132.371943 
L 602.644954 130.584594 
L 604.440191 128.835685 
L 606.19763 127.123599 
L 607.918832 125.446816 
L 609.605259 123.803909 
L 611.258289 122.193538 
L 612.87922 120.614438 
L 614.469274 119.065417 
L 616.029605 117.545352 
L 617.561305 116.05318 
L 619.065405 114.587896 
L 620.542883 113.148546 
L 621.994664 111.734231 
L 623.421627 110.344092 
L 624.824606 108.977319 
L 626.204395 107.633138 
L 627.561747 106.310815 
L 628.89738 105.009649 
L 630.211979 103.728975 
L 631.506196 102.468158 
L 632.780653 101.22659 
L 634.035944 100.003693 
L 635.272638 98.798914 
L 636.491277 97.611724 
L 637.692381 96.441616 
L 638.876448 95.288106 
L 640.043954 94.150729 
L 641.195355 93.029041 
L 642.331091 91.922614 
L 643.451582 90.831039 
L 644.557231 89.753923 
L 645.648427 88.690887 
L 646.725543 87.641568 
L 647.788937 86.605616 
L 648.838955 85.582696 
L 649.875928 84.572483 
L 650.900178 83.574665 
L 651.912012 82.588943 
L 652.911729 81.615026 
L 653.899614 80.652634 
L 654.875944 79.7015 
L 655.840987 78.761361 
L 656.795001 77.831967 
L 657.738235 76.913074 
L 658.67093 76.004449 
L 659.593318 75.105864 
L 660.505626 74.2171 
L 661.40807 73.337945 
L 662.300863 72.468192 
L 663.184207 71.607643 
L 664.058302 70.756105 
L 664.923339 69.913392 
L 665.779504 69.079322 
L 666.626976 68.25372 
" clip-path="url(#p482faedb5c)" style="fill: none; stroke: #808080; stroke-width: 1.5; stroke-linecap: square"/>
   </g>
   <g id="patch_3">
    <path d="M 90 630 
L 90 86.4 
" style="fill: none; stroke: #000000; stroke-width: 0.8; stroke-linejoin: miter; stroke-linecap: square"/>
   </g>
   <g id="patch_4">
    <path d="M 648 630 
L 648 86.4 
" style="fill: none; stroke: #000000; stroke-width: 0.8; stroke-linejoin: miter; stroke-linecap: square"/>
   </g>
   <g id="patch_5">
    <path d="M 90 630 
L 648 630 
" style="fill: none; stroke: #000000; stroke-width: 0.8; stroke-linejoin: miter; stroke-linecap: square"/>
   </g>
   <g id="patch_6">
    <path d="M 90 86.4 
L 648 86.4 
" style="fill: none; stroke: #000000; stroke-width: 0.8; stroke-linejoin: miter; stroke-linecap: square"/>
   </g>
   <g id="PathCollection_1">
    <defs>
     <path id="m85e6ac008e" d="M 0 5 
C 1.326016 5 2.597899 4.473168 3.535534 3.535534 
C 4.473168 2.597899 5 1.326016 5 0 
C 5 -1.326016 4.473168 -2.597899 3.535534 -3.535534 
C 2.597899 -4.473168 1.326016 -5 0 -5 
C -1.326016 -5 -2.597899 -4.473168 -3.535534 -3.535534 
C -4.473168 -2.597899 -5 -1.326016 -5 0 
C -5 1.326016 -4.473168 2.597899 -3.535534 3.535534 
C -2.597899 4.473168 -1.326016 5 0 5 
z
" style="stroke: #0000ff"/>
    </defs>
    <g clip-path="url(#p482faedb5c)">
     <use xlink:href="#m85e6ac008e" x="301.501113" y="423.95698" style="fill: #0000ff; stroke: #0000ff"/>
     <use xlink:href="#m85e6ac008e" x="419.831273" y="308.680502" style="fill: #0000ff; stroke: #0000ff"/>
    </g>
   </g>
   <g id="PathCollection_2">
    <defs>
     <path id="mf472d538d9" d="M 0 -5 
L -1.12257 -1.545085 
L -4.755283 -1.545085 
L -1.816356 0.59017 
L -2.938926 4.045085 
L -0 1.90983 
L 2.938926 4.045085 
L 1.816356 0.59017 
L 4.755283 -1.545085 
L 1.12257 -1.545085 
z
" style="stroke: #008000"/>
    </defs>
    <g clip-path="url(#p482faedb5c)">
     <use xlink:href="#mf472d538d9" x="247.523714" y="573.632507" style="fill: #008000; stroke: #008000"/>
     <use xlink:href="#mf472d538d9" x="257.074153" y="558.805916" style="fill: #008000; stroke: #008000"/>
     <use xlink:href="#mf472d538d9" x="230.772666" y="540.659637" style="fill: #008000; stroke: #008000"/>
     <use xlink:href="#mf472d538d9" x="257.074153" y="462.956392" style="fill: #008000; stroke: #008000"/>
     <use xlink:href="#mf472d538d9" x="273.413991" y="492.860177" style="fill: #008000; stroke: #008000"/>
     <use xlink:href="#mf472d538d9" x="282.208992" y="487.049055" style="fill: #008000; stroke: #008000"/>
     <use xlink:href="#mf472d538d9" x="298.808128" y="432.095877" style="fill: #008000; stroke: #008000"/>
     <use xlink:href="#mf472d538d9" x="192.155027" y="530.481232" style="fill: #008000; stroke: #008000"/>
     <use xlink:href="#mf472d538d9" x="192.155027" y="552.296755" style="fill: #008000; stroke: #008000"/>
     <use xlink:href="#mf472d538d9" x="187.094368" y="546.270213" style="fill: #008000; stroke: #008000"/>
     <use xlink:href="#mf472d538d9" x="187.094368" y="552.296755" style="fill: #008000; stroke: #008000"/>
     <use xlink:href="#mf472d538d9" x="247.523714" y="558.805916" style="fill: #008000; stroke: #008000"/>
     <use xlink:href="#mf472d538d9" x="244.95504" y="552.296755" style="fill: #008000; stroke: #008000"/>
     <use xlink:href="#mf472d538d9" x="244.95504" y="546.270213" style="fill: #008000; stroke: #008000"/>
     <use xlink:href="#mf472d538d9" x="236.737725" y="530.481232" style="fill: #008000; stroke: #008000"/>
     <use xlink:href="#mf472d538d9" x="247.523714" y="573.632507" style="fill: #008000; stroke: #008000"/>
     <use xlink:href="#mf472d538d9" x="252.435442" y="558.805916" style="fill: #008000; stroke: #008000"/>
     <use xlink:href="#mf472d538d9" x="244.95504" y="552.296755" style="fill: #008000; stroke: #008000"/>
     <use xlink:href="#mf472d538d9" x="271.538062" y="573.632507" style="fill: #008000; stroke: #008000"/>
     <use xlink:href="#mf472d538d9" x="354.590469" y="405.552947" style="fill: #008000; stroke: #008000"/>
     <use xlink:href="#mf472d538d9" x="358.026152" y="409.77837" style="fill: #008000; stroke: #008000"/>
     <use xlink:href="#mf472d538d9" x="380.340334" y="405.552947" style="fill: #008000; stroke: #008000"/>
     <use xlink:href="#mf472d538d9" x="383.871538" y="404.530026" style="fill: #008000; stroke: #008000"/>
     <use xlink:href="#mf472d538d9" x="378.253342" y="418.951024" style="fill: #008000; stroke: #008000"/>
     <use xlink:href="#mf472d538d9" x="375.569018" y="410.869945" style="fill: #008000; stroke: #008000"/>
     <use xlink:href="#mf472d538d9" x="163.08002" y="558.805916" style="fill: #008000; stroke: #008000"/>
     <use xlink:href="#mf472d538d9" x="155.816718" y="573.632507" style="fill: #008000; stroke: #008000"/>
     <use xlink:href="#mf472d538d9" x="155.816718" y="573.632507" style="fill: #008000; stroke: #008000"/>
     <use xlink:href="#mf472d538d9" x="163.08002" y="591.778786" style="fill: #008000; stroke: #008000"/>
     <use xlink:href="#mf472d538d9" x="224.34832" y="540.659637" style="fill: #008000; stroke: #008000"/>
     <use xlink:href="#mf472d538d9" x="196.926343" y="535.411293" style="fill: #008000; stroke: #008000"/>
     <use xlink:href="#mf472d538d9" x="209.794118" y="525.833047" style="fill: #008000; stroke: #008000"/>
     <use xlink:href="#mf472d538d9" x="298.808128" y="546.270213" style="fill: #008000; stroke: #008000"/>
     <use xlink:href="#mf472d538d9" x="335.787941" y="438.012748" style="fill: #008000; stroke: #008000"/>
     <use xlink:href="#mf472d538d9" x="334.011803" y="449.531925" style="fill: #008000; stroke: #008000"/>
     <use xlink:href="#mf472d538d9" x="230.772666" y="552.296755" style="fill: #008000; stroke: #008000"/>
     <use xlink:href="#mf472d538d9" x="410.678775" y="535.411293" style="fill: #008000; stroke: #008000"/>
     <use xlink:href="#mf472d538d9" x="327.479677" y="444.394147" style="fill: #008000; stroke: #008000"/>
     <use xlink:href="#mf472d538d9" x="324.515746" y="371.557157" style="fill: #008000; stroke: #008000"/>
     <use xlink:href="#mf472d538d9" x="324.515746" y="377.167733" style="fill: #008000; stroke: #008000"/>
     <use xlink:href="#mf472d538d9" x="326.503347" y="372.237672" style="fill: #008000; stroke: #008000"/>
     <use xlink:href="#mf472d538d9" x="275.248687" y="479.0438" style="fill: #008000; stroke: #008000"/>
     <use xlink:href="#mf472d538d9" x="263.582016" y="487.049055" style="fill: #008000; stroke: #008000"/>
     <use xlink:href="#mf472d538d9" x="271.538062" y="495.929262" style="fill: #008000; stroke: #008000"/>
     <use xlink:href="#mf472d538d9" x="278.801364" y="489.90272" style="fill: #008000; stroke: #008000"/>
     <use xlink:href="#mf472d538d9" x="244.95504" y="502.438423" style="fill: #008000; stroke: #008000"/>
     <use xlink:href="#mf472d538d9" x="247.523714" y="492.860177" style="fill: #008000; stroke: #008000"/>
     <use xlink:href="#mf472d538d9" x="399.583366" y="430.681562" style="fill: #008000; stroke: #008000"/>
     <use xlink:href="#mf472d538d9" x="388.20264" y="420.173921" style="fill: #008000; stroke: #008000"/>
     <use xlink:href="#mf472d538d9" x="383.376134" y="415.388947" style="fill: #008000; stroke: #008000"/>
     <use xlink:href="#mf472d538d9" x="449.05723" y="304.712832" style="fill: #008000; stroke: #008000"/>
     <use xlink:href="#mf472d538d9" x="440.987997" y="292.304892" style="fill: #008000; stroke: #008000"/>
     <use xlink:href="#mf472d538d9" x="438.458249" y="299.241385" style="fill: #008000; stroke: #008000"/>
     <use xlink:href="#mf472d538d9" x="263.582016" y="546.270213" style="fill: #008000; stroke: #008000"/>
     <use xlink:href="#mf472d538d9" x="252.435442" y="558.805916" style="fill: #008000; stroke: #008000"/>
     <use xlink:href="#mf472d538d9" x="257.074153" y="530.481232" style="fill: #008000; stroke: #008000"/>
     <use xlink:href="#mf472d538d9" x="267.65479" y="552.296755" style="fill: #008000; stroke: #008000"/>
     <use xlink:href="#mf472d538d9" x="275.248687" y="535.411293" style="fill: #008000; stroke: #008000"/>
     <use xlink:href="#mf472d538d9" x="250.015699" y="540.659637" style="fill: #008000; stroke: #008000"/>
     <use xlink:href="#mf472d538d9" x="247.523714" y="525.833047" style="fill: #008000; stroke: #008000"/>
     <use xlink:href="#mf472d538d9" x="370.508359" y="582.20054" style="fill: #008000; stroke: #008000"/>
     <use xlink:href="#mf472d538d9" x="263.582016" y="602.637707" style="fill: #008000; stroke: #008000"/>
     <use xlink:href="#mf472d538d9" x="252.435442" y="602.637707" style="fill: #008000; stroke: #008000"/>
     <use xlink:href="#mf472d538d9" x="394.956347" y="558.805916" style="fill: #008000; stroke: #008000"/>
     <use xlink:href="#mf472d538d9" x="300.16548" y="458.889489" style="fill: #008000; stroke: #008000"/>
     <use xlink:href="#mf472d538d9" x="288.633338" y="460.89752" style="fill: #008000; stroke: #008000"/>
     <use xlink:href="#mf472d538d9" x="217.388015" y="573.632507" style="fill: #008000; stroke: #008000"/>
     <use xlink:href="#mf472d538d9" x="181.706995" y="573.632507" style="fill: #008000; stroke: #008000"/>
     <use xlink:href="#mf472d538d9" x="181.706995" y="582.20054" style="fill: #008000; stroke: #008000"/>
     <use xlink:href="#mf472d538d9" x="187.094368" y="582.20054" style="fill: #008000; stroke: #008000"/>
     <use xlink:href="#mf472d538d9" x="508.264307" y="318.297854" style="fill: #008000; stroke: #008000"/>
     <use xlink:href="#mf472d538d9" x="507.593819" y="119.698807" style="fill: #008000; stroke: #008000"/>
     <use xlink:href="#mf472d538d9" x="306.639677" y="332.913495" style="fill: #008000; stroke: #008000"/>
     <use xlink:href="#mf472d538d9" x="323.503911" y="281.76626" style="fill: #008000; stroke: #008000"/>
     <use xlink:href="#mf472d538d9" x="169.761609" y="573.632507" style="fill: #008000; stroke: #008000"/>
     <use xlink:href="#mf472d538d9" x="201.439621" y="573.632507" style="fill: #008000; stroke: #008000"/>
     <use xlink:href="#mf472d538d9" x="175.947794" y="582.20054" style="fill: #008000; stroke: #008000"/>
     <use xlink:href="#mf472d538d9" x="205.721344" y="573.632507" style="fill: #008000; stroke: #008000"/>
     <use xlink:href="#mf472d538d9" x="205.721344" y="591.778786" style="fill: #008000; stroke: #008000"/>
     <use xlink:href="#mf472d538d9" x="209.794118" y="582.20054" style="fill: #008000; stroke: #008000"/>
     <use xlink:href="#mf472d538d9" x="205.721344" y="582.20054" style="fill: #008000; stroke: #008000"/>
     <use xlink:href="#mf472d538d9" x="205.721344" y="582.20054" style="fill: #008000; stroke: #008000"/>
     <use xlink:href="#mf472d538d9" x="163.08002" y="582.20054" style="fill: #008000; stroke: #008000"/>
     <use xlink:href="#mf472d538d9" x="155.816718" y="582.20054" style="fill: #008000; stroke: #008000"/>
     <use xlink:href="#mf472d538d9" x="169.761609" y="582.20054" style="fill: #008000; stroke: #008000"/>
     <use xlink:href="#mf472d538d9" x="163.08002" y="591.778786" style="fill: #008000; stroke: #008000"/>
     <use xlink:href="#mf472d538d9" x="169.761609" y="591.778786" style="fill: #008000; stroke: #008000"/>
     <use xlink:href="#mf472d538d9" x="147.860672" y="573.632507" style="fill: #008000; stroke: #008000"/>
     <use xlink:href="#mf472d538d9" x="196.926343" y="546.270213" style="fill: #008000; stroke: #008000"/>
     <use xlink:href="#mf472d538d9" x="181.706995" y="573.632507" style="fill: #008000; stroke: #008000"/>
     <use xlink:href="#mf472d538d9" x="187.094368" y="558.805916" style="fill: #008000; stroke: #008000"/>
     <use xlink:href="#mf472d538d9" x="192.155027" y="558.805916" style="fill: #008000; stroke: #008000"/>
     <use xlink:href="#mf472d538d9" x="181.706995" y="602.637707" style="fill: #008000; stroke: #008000"/>
     <use xlink:href="#mf472d538d9" x="181.706995" y="582.20054" style="fill: #008000; stroke: #008000"/>
     <use xlink:href="#mf472d538d9" x="205.721344" y="565.881778" style="fill: #008000; stroke: #008000"/>
     <use xlink:href="#mf472d538d9" x="285.482953" y="487.049055" style="fill: #008000; stroke: #008000"/>
     <use xlink:href="#mf472d538d9" x="290.165038" y="471.75644" style="fill: #008000; stroke: #008000"/>
     <use xlink:href="#mf472d538d9" x="325.515462" y="495.929262" style="fill: #008000; stroke: #008000"/>
     <use xlink:href="#mf472d538d9" x="280.522565" y="499.118733" style="fill: #008000; stroke: #008000"/>
     <use xlink:href="#mf472d538d9" x="192.155027" y="565.881778" style="fill: #008000; stroke: #008000"/>
     <use xlink:href="#mf472d538d9" x="175.947794" y="565.881778" style="fill: #008000; stroke: #008000"/>
    </g>
   </g>
   <g id="PathCollection_3">
    <defs>
     <path id="m5a196b20ab" d="M -5 5 
L 5 -5 
M -5 -5 
L 5 5 
" style="stroke: #ff0000; stroke-width: 1.5"/>
    </defs>
    <g clip-path="url(#p482faedb5c)">
     <use xlink:href="#m5a196b20ab" x="230.772666" y="558.805916" style="fill: #ff0000; stroke: #ff0000; stroke-width: 1.5"/>
     <use xlink:href="#m5a196b20ab" x="247.523714" y="565.881778" style="fill: #ff0000; stroke: #ff0000; stroke-width: 1.5"/>
     <use xlink:href="#m5a196b20ab" x="263.582016" y="565.881778" style="fill: #ff0000; stroke: #ff0000; stroke-width: 1.5"/>
     <use xlink:href="#m5a196b20ab" x="269.619005" y="558.805916" style="fill: #ff0000; stroke: #ff0000; stroke-width: 1.5"/>
     <use xlink:href="#m5a196b20ab" x="261.468604" y="573.632507" style="fill: #ff0000; stroke: #ff0000; stroke-width: 1.5"/>
     <use xlink:href="#m5a196b20ab" x="263.582016" y="565.881778" style="fill: #ff0000; stroke: #ff0000; stroke-width: 1.5"/>
     <use xlink:href="#m5a196b20ab" x="294.598397" y="552.296755" style="fill: #ff0000; stroke: #ff0000; stroke-width: 1.5"/>
     <use xlink:href="#m5a196b20ab" x="247.523714" y="552.296755" style="fill: #ff0000; stroke: #ff0000; stroke-width: 1.5"/>
     <use xlink:href="#m5a196b20ab" x="407.762311" y="530.481232" style="fill: #ff0000; stroke: #ff0000; stroke-width: 1.5"/>
     <use xlink:href="#m5a196b20ab" x="263.582016" y="540.659637" style="fill: #ff0000; stroke: #ff0000; stroke-width: 1.5"/>
     <use xlink:href="#m5a196b20ab" x="254.787015" y="546.270213" style="fill: #ff0000; stroke: #ff0000; stroke-width: 1.5"/>
     <use xlink:href="#m5a196b20ab" x="405.124045" y="565.881778" style="fill: #ff0000; stroke: #ff0000; stroke-width: 1.5"/>
     <use xlink:href="#m5a196b20ab" x="250.015699" y="573.632507" style="fill: #ff0000; stroke: #ff0000; stroke-width: 1.5"/>
     <use xlink:href="#m5a196b20ab" x="244.95504" y="591.778786" style="fill: #ff0000; stroke: #ff0000; stroke-width: 1.5"/>
     <use xlink:href="#m5a196b20ab" x="394.956347" y="552.296755" style="fill: #ff0000; stroke: #ff0000; stroke-width: 1.5"/>
     <use xlink:href="#m5a196b20ab" x="187.094368" y="591.778786" style="fill: #ff0000; stroke: #ff0000; stroke-width: 1.5"/>
    </g>
   </g>
  </g>
 </g>
 <defs>
  <clipPath id="p482faedb5c">
   <rect x="90" y="86.4" width="558" height="543.6"/>
  </clipPath>
 </defs>
</svg>
